<mxfile host="www.draw.io" modified="2019-10-26T19:17:23.265Z" agent="Mozilla/5.0 (Windows NT 10.0; Win64; x64) AppleWebKit/537.36 (KHTML, like Gecko) Chrome/77.0.3865.120 Safari/537.36" etag="iWLY2uelD_HJDi55FWqr" version="12.1.7" type="github" pages="1">
  <diagram id="8O14fFEL1NrA8Rd9ICKv" name="Page-1">
    <mxGraphModel dx="1422" dy="794" grid="1" gridSize="10" guides="1" tooltips="1" connect="1" arrows="1" fold="1" page="1" pageScale="1" pageWidth="1100" pageHeight="850" math="0" shadow="0">
      <root>
        <mxCell id="0"/>
        <mxCell id="1" parent="0"/>
        <mxCell id="SgkBNaZOiM6V6H04DboF-1" value="" style="rounded=1;whiteSpace=wrap;html=1;fillColor=#FEFFEB;strokeColor=#d6b656;" vertex="1" parent="1">
          <mxGeometry x="175" y="135" width="750" height="580" as="geometry"/>
        </mxCell>
        <mxCell id="SgkBNaZOiM6V6H04DboF-2" value="&lt;b style=&quot;font-size: 20px;&quot;&gt;ROV&lt;/b&gt;" style="text;html=1;strokeColor=none;fillColor=none;align=center;verticalAlign=middle;whiteSpace=wrap;rounded=0;fontSize=20;" vertex="1" parent="1">
          <mxGeometry x="840" y="670" width="40" height="20" as="geometry"/>
        </mxCell>
        <mxCell id="SgkBNaZOiM6V6H04DboF-10" style="edgeStyle=orthogonalEdgeStyle;rounded=0;orthogonalLoop=1;jettySize=auto;html=1;exitX=1;exitY=0.5;exitDx=0;exitDy=0;entryX=0.013;entryY=0.413;entryDx=0;entryDy=0;entryPerimeter=0;fontSize=20;" edge="1" parent="1" source="SgkBNaZOiM6V6H04DboF-3" target="SgkBNaZOiM6V6H04DboF-7">
          <mxGeometry relative="1" as="geometry">
            <Array as="points">
              <mxPoint x="390" y="218"/>
            </Array>
          </mxGeometry>
        </mxCell>
        <mxCell id="SgkBNaZOiM6V6H04DboF-3" value="&lt;span style=&quot;font-size: 14px&quot;&gt;&lt;b&gt;Tether Interface board&lt;/b&gt;&lt;/span&gt;" style="rounded=1;whiteSpace=wrap;html=1;fillColor=#e1d5e7;fontSize=20;strokeColor=#9673a6;" vertex="1" parent="1">
          <mxGeometry x="240" y="190" width="150" height="70" as="geometry"/>
        </mxCell>
        <mxCell id="SgkBNaZOiM6V6H04DboF-4" value="" style="endArrow=classic;startArrow=classic;html=1;fontSize=20;entryX=0.5;entryY=0;entryDx=0;entryDy=0;exitX=0;exitY=0.5;exitDx=0;exitDy=0;" edge="1" parent="1" source="SgkBNaZOiM6V6H04DboF-5" target="SgkBNaZOiM6V6H04DboF-3">
          <mxGeometry width="50" height="50" relative="1" as="geometry">
            <mxPoint x="190" y="100" as="sourcePoint"/>
            <mxPoint x="240" y="70" as="targetPoint"/>
            <Array as="points">
              <mxPoint x="315" y="65"/>
            </Array>
          </mxGeometry>
        </mxCell>
        <mxCell id="SgkBNaZOiM6V6H04DboF-5" value="&lt;span style=&quot;font-size: 14px&quot;&gt;&lt;b&gt;Base Station&lt;/b&gt;&lt;/span&gt;" style="rounded=1;whiteSpace=wrap;html=1;fillColor=#e1d5e7;fontSize=20;strokeColor=#9673a6;" vertex="1" parent="1">
          <mxGeometry x="925" y="30" width="150" height="70" as="geometry"/>
        </mxCell>
        <mxCell id="SgkBNaZOiM6V6H04DboF-6" value="&lt;font style=&quot;font-size: 14px&quot;&gt;Twisted Pair Data Tether&lt;/font&gt;" style="text;html=1;strokeColor=none;fillColor=none;align=center;verticalAlign=middle;whiteSpace=wrap;rounded=0;fontSize=20;fontStyle=1" vertex="1" parent="1">
          <mxGeometry x="670" y="40" width="210" height="20" as="geometry"/>
        </mxCell>
        <mxCell id="SgkBNaZOiM6V6H04DboF-7" value="&lt;font style=&quot;font-size: 14px&quot;&gt;Single Board Computer&lt;/font&gt;" style="rounded=1;whiteSpace=wrap;html=1;fillColor=#e1d5e7;fontSize=20;strokeColor=#9673a6;fontStyle=1" vertex="1" parent="1">
          <mxGeometry x="540" y="185" width="160" height="80" as="geometry"/>
        </mxCell>
        <mxCell id="SgkBNaZOiM6V6H04DboF-11" value="Ethernet Connection" style="text;html=1;strokeColor=none;fillColor=none;align=center;verticalAlign=middle;whiteSpace=wrap;rounded=0;fontSize=14;" vertex="1" parent="1">
          <mxGeometry x="400" y="230" width="120" height="20" as="geometry"/>
        </mxCell>
      </root>
    </mxGraphModel>
  </diagram>
</mxfile>
